<svg width="12" height="26" viewBox="0 0 12 26" fill="none" xmlns="http://www.w3.org/2000/svg">
<path d="M6.27 1.86C6.73 0.62 7.61 0 8.91 0C9.79 0 10.51 0.26 11.07 0.780001C11.63 1.28 11.91 2.03 11.91 3.03V22.7976C11.91 23.7263 11.4799 24.6026 10.7452 25.1707C9.66448 26.0065 8.15552 26.0065 7.07476 25.1707C6.34011 24.6026 5.91 23.7263 5.91 22.7976V9.3H3.09C2.25 9.3 1.52 9.09 0.9 8.67C0.3 8.25 0 7.62 0 6.78C0 6.08 0.21 5.52 0.63 5.1C1.05 4.68 1.56 4.43 2.16 4.35C3.12 4.23 3.97 3.99 4.71 3.63C5.47 3.25 5.99 2.66 6.27 1.86Z" fill="white"/>
</svg>
