<svg width="18" height="27" viewBox="0 0 18 27" fill="none" xmlns="http://www.w3.org/2000/svg">
<path id="3" d="M17.656 18.128C17.656 19.4933 17.4107 20.7093 16.92 21.776C16.4507 22.8427 15.8 23.7493 14.968 24.496C14.1573 25.2213 13.1973 25.776 12.088 26.16C11 26.544 9.848 26.736 8.632 26.736C7.928 26.736 7.20267 26.6827 6.456 26.576C5.73067 26.4907 5.02667 26.3413 4.344 26.128C3.68267 25.9147 3.07467 25.6267 2.52 25.264C1.96533 24.9013 1.496 24.464 1.112 23.952C0.685333 23.3547 0.493333 22.6827 0.536 21.936C0.6 21.1893 0.909334 20.5707 1.464 20.08C1.912 19.6747 2.424 19.4507 3 19.408C3.576 19.3653 4.10933 19.408 4.6 19.536C4.89867 19.6213 5.16533 19.76 5.4 19.952C5.656 20.144 5.86933 20.2933 6.04 20.4C6.40267 20.6347 6.776 20.784 7.16 20.848C7.56533 20.8907 8.01333 20.912 8.504 20.912C9.31467 20.912 9.99733 20.6347 10.552 20.08C11.1067 19.5253 11.384 18.8107 11.384 17.936C11.384 17.4667 11.2773 17.0613 11.064 16.72C10.872 16.3573 10.5947 16.0587 10.232 15.824C9.89067 15.568 9.48533 15.376 9.016 15.248C8.568 15.12 8.07733 15.056 7.544 15.056H6.008C5.53867 15.056 5.10133 14.8853 4.696 14.544C4.312 14.2027 4.06667 13.808 3.96 13.36C3.81067 12.784 3.81067 12.2507 3.96 11.76C4.10933 11.248 4.46133 10.7467 5.016 10.256L9.944 5.84H3.64C3.17067 5.84 2.76533 5.76534 2.424 5.616C2.104 5.44534 1.83733 5.232 1.624 4.976C1.41067 4.72 1.25067 4.44267 1.144 4.144C1.05867 3.824 1.016 3.504 1.016 3.184C1.016 2.88534 1.05867 2.576 1.144 2.256C1.25067 1.936 1.41067 1.648 1.624 1.392C1.83733 1.136 2.104 0.92267 2.424 0.752003C2.76533 0.581336 3.17067 0.496002 3.64 0.496002H13.592C14.4453 0.496002 15.16 0.720003 15.736 1.168C16.3333 1.616 16.7493 2.16 16.984 2.8C17.24 3.44 17.304 4.12267 17.176 4.848C17.048 5.552 16.7173 6.17067 16.184 6.704L11.704 11.152C12.4293 11.2373 13.144 11.4613 13.848 11.824C14.5733 12.1867 15.2133 12.6667 15.768 13.264C16.344 13.8613 16.8027 14.576 17.144 15.408C17.4853 16.2187 17.656 17.1253 17.656 18.128Z" fill="white"/>
</svg>
