<svg width="64" height="64" viewBox="0 0 64 64" fill="none" xmlns="http://www.w3.org/2000/svg">
<g id="Bold / Faces, Emotions, Stickers / Smile Circle">
<path id="Vector" fill-rule="evenodd" clip-rule="evenodd" d="M32 58.6666C46.7275 58.6666 58.6667 46.7274 58.6667 32C58.6667 17.2724 46.7275 5.33331 32 5.33331C17.2724 5.33331 5.33333 17.2724 5.33333 32C5.33333 46.7274 17.2724 58.6666 32 58.6666ZM22.3932 41.4757C23.051 40.5882 24.3036 40.4021 25.191 41.06C27.1333 42.4994 29.4776 43.3333 32 43.3333C34.5224 43.3333 36.8667 42.4994 38.8091 41.06C39.6965 40.4021 40.9491 40.5882 41.6067 41.4757C42.2645 42.3632 42.0784 43.6157 41.1909 44.2733C38.5979 46.1954 35.4267 47.3333 32 47.3333C28.5733 47.3333 25.4021 46.1954 22.809 44.2733C21.9216 43.6157 21.7355 42.3632 22.3932 41.4757ZM42.6667 28C42.6667 30.209 41.4728 32 40 32C38.5272 32 37.3333 30.209 37.3333 28C37.3333 25.7908 38.5272 24 40 24C41.4728 24 42.6667 25.7908 42.6667 28ZM24 32C25.4727 32 26.6667 30.209 26.6667 28C26.6667 25.7908 25.4727 24 24 24C22.5272 24 21.3333 25.7908 21.3333 28C21.3333 30.209 22.5272 32 24 32Z" fill="#1C274C"/>
</g>
</svg>
