<svg width="28" height="29" viewBox="0 0 28 29" fill="none" xmlns="http://www.w3.org/2000/svg">
<g id="Bold / Like / Medal Ribbon Star">
<path id="Vector" fill-rule="evenodd" clip-rule="evenodd" d="M14 19.3333C18.5103 19.3333 22.1667 15.5464 22.1667 10.875C22.1667 6.2036 18.5103 2.41667 14 2.41667C9.48968 2.41667 5.83334 6.2036 5.83334 10.875C5.83334 15.5464 9.48968 19.3333 14 19.3333ZM14 7.25001C13.6686 7.25001 13.4469 7.66185 13.0036 8.48554L12.8889 8.69864C12.763 8.93271 12.7 9.04975 12.6018 9.12696C12.5035 9.20418 12.3813 9.23284 12.1366 9.29017L11.9139 9.34237C11.053 9.54411 10.6225 9.64498 10.5201 9.98606C10.4177 10.3271 10.7111 10.6825 11.298 11.3934L11.4499 11.5773C11.6167 11.7792 11.7 11.8802 11.7376 12.0052C11.7751 12.1301 11.7625 12.2648 11.7373 12.5344L11.7143 12.7797C11.6256 13.7281 11.5812 14.2023 11.8493 14.4131C12.1175 14.6239 12.5204 14.4317 13.3265 14.0474L13.535 13.9479C13.7641 13.8387 13.8786 13.7841 14 13.7841C14.1215 13.7841 14.2359 13.8387 14.465 13.9479L14.6735 14.0474C15.4796 14.4317 15.8825 14.6239 16.1508 14.4131C16.4189 14.2023 16.3744 13.7281 16.2857 12.7797L16.2628 12.5344C16.2376 12.2648 16.225 12.1301 16.2624 12.0052C16.3 11.8802 16.3834 11.7792 16.5501 11.5773L16.702 11.3934C17.2888 10.6825 17.5824 10.3271 17.4799 9.98606C17.3775 9.64498 16.947 9.54411 16.0861 9.34237L15.8634 9.29017C15.6188 9.23284 15.4965 9.20418 15.3983 9.12696C15.3 9.04975 15.237 8.93271 15.1111 8.69864L14.9965 8.48554C14.5531 7.66185 14.3315 7.25001 14 7.25001Z" fill="#F7CE45"/>
<path id="Vector_2" d="M8.27518 19.2625L7.83328 20.932C7.10022 23.7012 6.73368 25.0858 7.2228 25.844C7.39422 26.1095 7.62417 26.3228 7.89101 26.4635C8.6524 26.865 9.828 26.2306 12.1792 24.9618C12.9615 24.5396 13.3527 24.3285 13.7683 24.2825C13.9224 24.2655 14.0776 24.2655 14.2317 24.2825C14.6473 24.3285 15.0385 24.5396 15.8208 24.9618C18.172 26.2306 19.3477 26.865 20.109 26.4635C20.3758 26.3228 20.6058 26.1095 20.7772 25.844C21.2664 25.0858 20.8998 23.7012 20.1668 20.932L19.7248 19.2625C18.1076 20.4487 16.1324 21.1458 14 21.1458C11.8676 21.1458 9.89234 20.4487 8.27518 19.2625Z" fill="#F7CE45"/>
</g>
</svg>
