<svg width="28" height="28" viewBox="0 0 28 28" fill="none" xmlns="http://www.w3.org/2000/svg">
<g id="Bold / Like / Medal Ribbon Star">
<path id="Vector" fill-rule="evenodd" clip-rule="evenodd" d="M14 18.6666C18.5104 18.6666 22.1667 15.0103 22.1667 10.5C22.1667 5.98966 18.5104 2.33331 14 2.33331C9.48972 2.33331 5.83337 5.98966 5.83337 10.5C5.83337 15.0103 9.48972 18.6666 14 18.6666ZM14 6.99998C13.6686 6.99998 13.4469 7.39763 13.0036 8.19291L12.8889 8.39866C12.763 8.62466 12.7 8.73766 12.6018 8.81221C12.5036 8.88677 12.3813 8.91444 12.1366 8.96979L11.9139 9.02019C11.053 9.21498 10.6226 9.31237 10.5201 9.64169C10.4177 9.971 10.7112 10.3142 11.2981 11.0005L11.4499 11.178C11.6167 11.373 11.7001 11.4705 11.7376 11.5912C11.7751 11.7118 11.7625 11.8419 11.7373 12.1022L11.7143 12.339C11.6256 13.2547 11.5812 13.7125 11.8493 13.9161C12.1175 14.1196 12.5205 13.9341 13.3265 13.5629L13.535 13.4669C13.7641 13.3615 13.8786 13.3087 14 13.3087C14.1215 13.3087 14.2359 13.3615 14.4651 13.4669L14.6736 13.5629C15.4796 13.9341 15.8826 14.1196 16.1508 13.9161C16.4189 13.7125 16.3744 13.2547 16.2858 12.339L16.2628 12.1022C16.2376 11.8419 16.225 11.7118 16.2624 11.5912C16.3 11.4705 16.3834 11.373 16.5501 11.178L16.702 11.0005C17.2889 10.3142 17.5824 9.971 17.48 9.64169C17.3775 9.31237 16.947 9.21498 16.0862 9.02019L15.8634 8.96979C15.6188 8.91444 15.4965 8.88677 15.3983 8.81221C15.3001 8.73766 15.2371 8.62466 15.1112 8.39866L14.9965 8.19291C14.5532 7.39763 14.3315 6.99998 14 6.99998Z" fill="#47BDFF"/>
<path id="Vector_2" d="M8.27518 18.5983L7.83328 20.2102C7.10022 22.884 6.73368 24.2208 7.2228 24.9528C7.39422 25.2092 7.62417 25.4152 7.89101 25.551C8.6524 25.9386 9.828 25.3261 12.1792 24.101C12.9615 23.6934 13.3527 23.4896 13.7683 23.4452C13.9224 23.4288 14.0776 23.4288 14.2317 23.4452C14.6473 23.4896 15.0385 23.6934 15.8208 24.101C18.172 25.3261 19.3477 25.9386 20.109 25.551C20.3758 25.4152 20.6058 25.2092 20.7772 24.9528C21.2664 24.2208 20.8998 22.884 20.1668 20.2102L19.7248 18.5983C18.1076 19.7436 16.1324 20.4167 14 20.4167C11.8676 20.4167 9.89234 19.7436 8.27518 18.5983Z" fill="#47BDFF"/>
</g>
</svg>
