<svg width="24" height="24" viewBox="0 0 24 24" fill="none" xmlns="http://www.w3.org/2000/svg">
<g id="Bold / Essentional, UI / Confetti Minimalistic">
<path id="Vector" d="M13.039 18.3864L13.3058 18.2975C15.6039 17.5314 16.7529 17.1484 16.9668 16.2422C17.1808 15.3359 16.3243 14.4795 14.6115 12.7666L12.9222 11.0774C12.9207 11.0821 12.9191 11.087 12.9175 11.0922C12.8979 11.154 12.8695 11.245 12.8353 11.3594C12.7667 11.5886 12.6752 11.9095 12.5838 12.2753C12.3968 13.0241 12.2271 13.8973 12.2271 14.5552C12.2271 15.2131 12.3968 16.0863 12.5838 16.8351C12.6752 17.2009 12.7667 17.5218 12.8353 17.751C12.8695 17.8654 12.8979 17.9564 12.9175 18.0182C12.9273 18.0491 12.9349 18.0727 12.9399 18.0881L12.9455 18.1052L12.9468 18.109L13.039 18.3864Z" fill="#F7CE45"/>
<path id="Vector_2" d="M7.47151 20.2413C5.20995 20.9869 4.01839 21.2989 3.35924 20.6398C2.62936 19.9099 3.09026 18.5272 4.01207 15.7618L5.70156 10.6933C6.33358 8.79725 6.70486 7.68339 7.32442 7.23155L7.31921 7.25736C7.31199 7.29327 7.30156 7.34575 7.28842 7.41325C7.26215 7.54824 7.22504 7.74345 7.18122 7.98662C7.09363 8.47264 6.97894 9.15184 6.87035 9.92573C6.65521 11.4589 6.45595 13.4179 6.5586 14.9834C6.62072 15.9306 6.81779 17.1057 6.99367 18.0238C7.08243 18.4872 7.16741 18.8933 7.23023 19.1838C7.26166 19.3291 7.2876 19.4457 7.30576 19.5264L7.3269 19.6195L7.47151 20.2413Z" fill="#F7CE45"/>
<path id="Vector_3" d="M8.8504 7.25896L8.79973 7.50424L8.79923 7.50665L8.7974 7.51562L8.78989 7.55277C8.78324 7.58587 8.77339 7.63539 8.76086 7.69981C8.73578 7.82867 8.69996 8.017 8.6575 8.25266C8.5725 8.72427 8.46115 9.38377 8.35585 10.1342C8.14323 11.6495 7.9634 13.4814 8.05545 14.8852C8.11118 15.7351 8.2932 16.8346 8.46695 17.7416C8.55299 18.1909 8.63547 18.585 8.69639 18.8667C8.72683 19.0075 8.75184 19.1199 8.76916 19.1968L8.78907 19.2845L8.79416 19.3066L8.90098 19.7657L11.616 18.8608L11.5135 18.552C11.5074 18.5333 11.4987 18.5064 11.4878 18.472C11.4659 18.4031 11.4351 18.3042 11.3983 18.1811C11.3247 17.9354 11.2267 17.5917 11.1285 17.1985C10.9364 16.4293 10.7271 15.407 10.7271 14.5552C10.7271 13.7034 10.9364 12.6811 11.1285 11.9119C11.2267 11.5187 11.3247 11.175 11.3983 10.9293C11.4351 10.8062 11.4659 10.7073 11.4878 10.6384C11.4987 10.604 11.5074 10.5771 11.5135 10.5584L11.5226 10.5305L11.7353 9.89048L11.2325 9.38764C10.1889 8.34402 9.46314 7.61833 8.8504 7.25896Z" fill="#FF8A00"/>
<path id="Vector_4" d="M10.9264 2.36021C11.2798 2.57626 11.3912 3.03789 11.1751 3.3913C11.0184 3.64775 11.0577 3.97821 11.2702 4.19075L11.3681 4.28863C11.9567 4.87729 12.1738 5.74206 11.9329 6.53894C11.8131 6.93543 11.3945 7.1597 10.998 7.03985C10.6015 6.91999 10.3772 6.50141 10.4971 6.10492C10.578 5.83734 10.5051 5.54695 10.3074 5.34929L10.2095 5.25141C9.50703 4.54889 9.37715 3.45659 9.89536 2.60892C10.1114 2.25551 10.573 2.14416 10.9264 2.36021Z" fill="white"/>
<path id="Vector_5" d="M13.561 4.39658C13.7621 4.19553 13.8626 4.095 13.9788 4.05815C14.0772 4.02698 14.1827 4.02698 14.281 4.05815C14.3973 4.095 14.4978 4.19553 14.6989 4.39658C14.8999 4.59764 15.0004 4.69817 15.0373 4.81441C15.0685 4.91272 15.0685 5.01827 15.0373 5.11659C15.0004 5.23283 14.8999 5.33336 14.6989 5.53441C14.4978 5.73547 14.3973 5.836 14.281 5.87285C14.1827 5.90401 14.0772 5.90401 13.9788 5.87285C13.8626 5.836 13.7621 5.73547 13.561 5.53441C13.36 5.33336 13.2594 5.23283 13.2226 5.11659C13.1914 5.01827 13.1914 4.91272 13.2226 4.81441C13.2594 4.69817 13.36 4.59764 13.561 4.39658Z" fill="white"/>
<path id="Vector_6" d="M6.92712 3.9409C7.13659 3.73143 7.47621 3.73143 7.68567 3.9409C7.89514 4.15037 7.89514 4.48999 7.68567 4.69945C7.47621 4.90892 7.13659 4.90892 6.92712 4.69945C6.71765 4.48999 6.71765 4.15037 6.92712 3.9409Z" fill="white"/>
<path id="Vector_7" d="M19.9747 7.04681C19.8363 7.10014 19.7136 7.22283 19.4682 7.46822C19.2228 7.71362 19.1001 7.83631 19.0468 7.97472C18.9844 8.1367 18.9844 8.31609 19.0468 8.47807C19.1001 8.61649 19.2228 8.73918 19.4682 8.98457C19.7136 9.22996 19.8363 9.35266 19.9747 9.40599C20.1367 9.4684 20.3161 9.4684 20.4781 9.40599C20.6165 9.35266 20.7392 9.22996 20.9846 8.98457C21.23 8.73918 21.3527 8.61649 21.406 8.47807C21.4684 8.31609 21.4684 8.1367 21.406 7.97472C21.3527 7.83631 21.23 7.71362 20.9846 7.46822C20.7392 7.22283 20.6165 7.10014 20.4781 7.04681C20.3161 6.9844 20.1367 6.9844 19.9747 7.04681Z" fill="white"/>
<path id="Vector_8" d="M19.058 15.3134C19.2674 15.1039 19.6071 15.1039 19.8165 15.3134C20.026 15.5228 20.026 15.8624 19.8165 16.0719C19.6071 16.2814 19.2674 16.2814 19.058 16.0719C18.8485 15.8624 18.8485 15.5228 19.058 15.3134Z" fill="white"/>
<path id="Vector_9" d="M17.6892 4.72174C18.0954 4.80297 18.3588 5.19809 18.2776 5.60426L18.1336 6.3242C17.9354 7.31501 17.2215 8.12368 16.2629 8.44321C15.815 8.59252 15.4814 8.97039 15.3888 9.43337L15.2449 10.1533C15.1636 10.5595 14.7685 10.8229 14.3623 10.7417C13.9562 10.6604 13.6928 10.2653 13.774 9.85913L13.918 9.1392C14.1161 8.14838 14.83 7.33971 15.7886 7.02019C16.2365 6.87088 16.5701 6.49301 16.6627 6.03002L16.8067 5.31009C16.8879 4.90392 17.283 4.64051 17.6892 4.72174Z" fill="white"/>
<path id="Vector_10" d="M21.4082 12.5596C21.0465 12.4015 20.6258 12.4679 20.3304 12.7298C19.5212 13.4474 18.3435 13.5667 17.4068 13.0259L17.194 12.903C16.8353 12.6959 16.7124 12.2372 16.9195 11.8785C17.1266 11.5198 17.5853 11.3968 17.944 11.604L18.1568 11.7268C18.5344 11.9448 19.0091 11.8967 19.3352 11.6075C20.0681 10.9577 21.1117 10.7929 22.0091 11.1852L22.3006 11.3127C22.6801 11.4786 22.8532 11.9208 22.6873 12.3003C22.5214 12.6799 22.0792 12.853 21.6997 12.6871L21.4082 12.5596Z" fill="white"/>
<path id="Vector_11" d="M17.5001 9.74159C17.7096 9.53212 18.0492 9.53212 18.2587 9.74159C18.4682 9.95106 18.4682 10.2907 18.2587 10.5001C18.0492 10.7096 17.7096 10.7096 17.5001 10.5001C17.2907 10.2907 17.2907 9.95106 17.5001 9.74159Z" fill="white"/>
</g>
</svg>
