<svg width="19" height="26" viewBox="0 0 19 26" fill="none" xmlns="http://www.w3.org/2000/svg">
<path d="M3.968 25.888C2.752 25.888 1.78133 25.568 1.056 24.928C0.352 24.2667 0 23.328 0 22.112V21.76C0 20.6933 0.064 19.7547 0.192 18.944C0.32 18.112 0.533333 17.376 0.832 16.736C1.152 16.0747 1.568 15.4773 2.08 14.944C2.592 14.4107 3.22133 13.888 3.968 13.376L8.992 10.048C9.504 9.70667 9.84533 9.33333 10.016 8.928C10.208 8.52267 10.304 8.128 10.304 7.744C10.304 7.21067 10.0907 6.76267 9.664 6.4C9.25867 6.016 8.69333 5.824 7.968 5.824C7.47733 5.824 7.04 5.93067 6.656 6.144C6.29333 6.336 5.93067 6.58133 5.568 6.88C5.39733 7.02933 5.184 7.18933 4.928 7.36C4.69333 7.53067 4.42667 7.65867 4.128 7.744C3.63733 7.872 3.104 7.91467 2.528 7.872C1.952 7.82933 1.42933 7.616 0.96 7.232C0.384 6.76267 0.0746667 6.15467 0.0320001 5.408C0.0106667 4.66133 0.202667 3.98933 0.608 3.392C0.992 2.79467 1.472 2.28267 2.048 1.856C2.64533 1.42933 3.27467 1.07733 3.936 0.799999C4.61867 0.522667 5.312 0.32 6.016 0.191999C6.74133 0.0639998 7.44533 0 8.128 0C9.344 0 10.4747 0.16 11.52 0.48C12.5867 0.778666 13.504 1.22667 14.272 1.824C15.0613 2.42133 15.68 3.14667 16.128 4C16.5973 4.85333 16.832 5.83467 16.832 6.944C16.832 8.672 16.5227 10.112 15.904 11.264C15.3067 12.3947 14.3467 13.3867 13.024 14.24L9.056 16.768C8.24533 17.3013 7.65867 17.7707 7.296 18.176C6.93333 18.56 6.752 19.0507 6.752 19.648V19.872C6.752 20.192 6.912 20.352 7.232 20.352H15.7935C16.6138 20.352 17.392 20.7159 17.9179 21.3456C18.776 22.3729 18.776 23.8671 17.9179 24.8944C17.392 25.5241 16.6138 25.888 15.7935 25.888H3.968Z" fill="white"/>
</svg>
