<svg width="32" height="32" viewBox="0 0 32 32" fill="none" xmlns="http://www.w3.org/2000/svg">
<g id="Bold / Like / Medal Ribbon Star">
<path id="Vector" fill-rule="evenodd" clip-rule="evenodd" d="M16 21.3334C21.1547 21.3334 25.3334 17.1547 25.3334 12C25.3334 6.84537 21.1547 2.66669 16 2.66669C10.8454 2.66669 6.66669 6.84537 6.66669 12C6.66669 17.1547 10.8454 21.3334 16 21.3334ZM16 8.00002C15.6212 8.00002 15.3679 8.45447 14.8612 9.36337L14.7302 9.59851C14.5863 9.85679 14.5143 9.98594 14.402 10.0711C14.2898 10.1564 14.15 10.188 13.8704 10.2512L13.6159 10.3088C12.632 10.5314 12.14 10.6428 12.023 11.0191C11.906 11.3955 12.2413 11.7876 12.9121 12.572L13.0856 12.7749C13.2762 12.9978 13.3715 13.1092 13.4144 13.2471C13.4572 13.385 13.4428 13.5336 13.414 13.8311L13.3878 14.1018C13.2864 15.1483 13.2357 15.6715 13.542 15.9042C13.8486 16.1367 14.3091 15.9247 15.2303 15.5006L15.4686 15.3908C15.7304 15.2703 15.8612 15.21 16 15.21C16.1388 15.21 16.2696 15.2703 16.5315 15.3908L16.7698 15.5006C17.691 15.9247 18.1515 16.1367 18.458 15.9042C18.7644 15.6715 18.7136 15.1483 18.6123 14.1018L18.586 13.8311C18.5572 13.5336 18.5428 13.385 18.5856 13.2471C18.6286 13.1092 18.7239 12.9978 18.9144 12.7749L19.088 12.572C19.7587 11.7876 20.0942 11.3955 19.9771 11.0191C19.86 10.6428 19.368 10.5314 18.3842 10.3088L18.1296 10.2512C17.85 10.188 17.7103 10.1564 17.598 10.0711C17.4858 9.98594 17.4138 9.85679 17.2699 9.59851L17.1388 9.36337C16.6322 8.45447 16.3788 8.00002 16 8.00002Z" fill="white"/>
<path id="Vector_2" d="M9.45735 21.2552L8.95232 23.0973C8.11453 26.1531 7.69564 27.6809 8.25463 28.5175C8.45053 28.8105 8.71333 29.0459 9.01829 29.2011C9.88845 29.6441 11.232 28.9441 13.9191 27.544C14.8132 27.0781 15.2603 26.8452 15.7352 26.7945C15.9113 26.7757 16.0887 26.7757 16.2648 26.7945C16.7397 26.8452 17.1868 27.0781 18.0809 27.544C20.768 28.9441 22.1116 29.6441 22.9817 29.2011C23.2867 29.0459 23.5495 28.8105 23.7453 28.5175C24.3044 27.6809 23.8855 26.1531 23.0477 23.0973L22.5427 21.2552C20.6944 22.5641 18.4371 23.3333 16 23.3333C13.5629 23.3333 11.3055 22.5641 9.45735 21.2552Z" fill="white"/>
</g>
</svg>
